<svg xmlns="http://www.w3.org/2000/svg" width="590" height="560" viewBox="0 0 590 560">
<rect width="590" height="560" fill="#0a0a1a"/>
<style>
  text { font-family: 'Inter', 'Helvetica', sans-serif; }
</style>
<text x="295" y="25" text-anchor="middle" fill="white" font-size="16" font-weight="600">Self-Attention: "The bank approved the loan"</text>
<text x="125" y="68" text-anchor="middle" fill="#e0e0e8" font-size="14">The</text>
<text x="215" y="68" text-anchor="middle" fill="#e0e0e8" font-size="14">bank</text>
<text x="305" y="68" text-anchor="middle" fill="#e0e0e8" font-size="14">approved</text>
<text x="395" y="68" text-anchor="middle" fill="#e0e0e8" font-size="14">the</text>
<text x="485" y="68" text-anchor="middle" fill="#e0e0e8" font-size="14">loan</text>
<text x="68" y="130" text-anchor="end" fill="#e0e0e8" font-size="14">The</text>
<text x="68" y="220" text-anchor="end" fill="#e0e0e8" font-size="14">bank</text>
<text x="68" y="310" text-anchor="end" fill="#e0e0e8" font-size="14">approved</text>
<text x="68" y="400" text-anchor="end" fill="#e0e0e8" font-size="14">the</text>
<text x="68" y="490" text-anchor="end" fill="#e0e0e8" font-size="14">loan</text>
<rect x="80" y="80" width="90" height="90" fill="rgb(10,215,255)" stroke="#1a1a2e" stroke-width="1"/>
<text x="125" y="130" text-anchor="middle" fill="white" font-size="13" font-weight="bold">0.50</text>
<rect x="170" y="80" width="90" height="90" fill="rgb(10,55,83)" stroke="#1a1a2e" stroke-width="1"/>
<text x="215" y="130" text-anchor="middle" fill="#bbbbbb" font-size="13" font-weight="normal">0.10</text>
<rect x="260" y="80" width="90" height="90" fill="rgb(10,47,74)" stroke="#1a1a2e" stroke-width="1"/>
<text x="305" y="130" text-anchor="middle" fill="#bbbbbb" font-size="13" font-weight="normal">0.08</text>
<rect x="350" y="80" width="90" height="90" fill="rgb(10,103,134)" stroke="#1a1a2e" stroke-width="1"/>
<text x="395" y="130" text-anchor="middle" fill="#bbbbbb" font-size="13" font-weight="normal">0.22</text>
<rect x="440" y="80" width="90" height="90" fill="rgb(10,55,83)" stroke="#1a1a2e" stroke-width="1"/>
<text x="485" y="130" text-anchor="middle" fill="#bbbbbb" font-size="13" font-weight="normal">0.10</text>
<rect x="80" y="170" width="90" height="90" fill="rgb(10,55,83)" stroke="#1a1a2e" stroke-width="1"/>
<text x="125" y="220" text-anchor="middle" fill="#bbbbbb" font-size="13" font-weight="normal">0.10</text>
<rect x="170" y="170" width="90" height="90" fill="rgb(10,115,147)" stroke="#1a1a2e" stroke-width="1"/>
<text x="215" y="220" text-anchor="middle" fill="#bbbbbb" font-size="13" font-weight="normal">0.25</text>
<rect x="260" y="170" width="90" height="90" fill="rgb(10,95,126)" stroke="#1a1a2e" stroke-width="1"/>
<text x="305" y="220" text-anchor="middle" fill="#bbbbbb" font-size="13" font-weight="normal">0.20</text>
<rect x="350" y="170" width="90" height="90" fill="rgb(10,35,61)" stroke="#1a1a2e" stroke-width="1"/>
<text x="395" y="220" text-anchor="middle" fill="#bbbbbb" font-size="13" font-weight="normal">0.05</text>
<rect x="440" y="170" width="90" height="90" fill="rgb(10,175,212)" stroke="#1a1a2e" stroke-width="1"/>
<text x="485" y="220" text-anchor="middle" fill="white" font-size="13" font-weight="bold">0.40</text>
<rect x="80" y="260" width="90" height="90" fill="rgb(10,47,74)" stroke="#1a1a2e" stroke-width="1"/>
<text x="125" y="310" text-anchor="middle" fill="#bbbbbb" font-size="13" font-weight="normal">0.08</text>
<rect x="170" y="260" width="90" height="90" fill="rgb(10,95,126)" stroke="#1a1a2e" stroke-width="1"/>
<text x="215" y="310" text-anchor="middle" fill="#bbbbbb" font-size="13" font-weight="normal">0.20</text>
<rect x="260" y="260" width="90" height="90" fill="rgb(10,135,169)" stroke="#1a1a2e" stroke-width="1"/>
<text x="305" y="310" text-anchor="middle" fill="#bbbbbb" font-size="13" font-weight="normal">0.30</text>
<rect x="350" y="260" width="90" height="90" fill="rgb(10,43,70)" stroke="#1a1a2e" stroke-width="1"/>
<text x="395" y="310" text-anchor="middle" fill="#bbbbbb" font-size="13" font-weight="normal">0.07</text>
<rect x="440" y="260" width="90" height="90" fill="rgb(10,155,190)" stroke="#1a1a2e" stroke-width="1"/>
<text x="485" y="310" text-anchor="middle" fill="white" font-size="13" font-weight="bold">0.35</text>
<rect x="80" y="350" width="90" height="90" fill="rgb(10,103,134)" stroke="#1a1a2e" stroke-width="1"/>
<text x="125" y="400" text-anchor="middle" fill="#bbbbbb" font-size="13" font-weight="normal">0.22</text>
<rect x="170" y="350" width="90" height="90" fill="rgb(10,35,61)" stroke="#1a1a2e" stroke-width="1"/>
<text x="215" y="400" text-anchor="middle" fill="#bbbbbb" font-size="13" font-weight="normal">0.05</text>
<rect x="260" y="350" width="90" height="90" fill="rgb(10,43,70)" stroke="#1a1a2e" stroke-width="1"/>
<text x="305" y="400" text-anchor="middle" fill="#bbbbbb" font-size="13" font-weight="normal">0.07</text>
<rect x="350" y="350" width="90" height="90" fill="rgb(10,135,169)" stroke="#1a1a2e" stroke-width="1"/>
<text x="395" y="400" text-anchor="middle" fill="#bbbbbb" font-size="13" font-weight="normal">0.30</text>
<rect x="440" y="350" width="90" height="90" fill="rgb(10,159,194)" stroke="#1a1a2e" stroke-width="1"/>
<text x="485" y="400" text-anchor="middle" fill="white" font-size="13" font-weight="bold">0.36</text>
<rect x="80" y="440" width="90" height="90" fill="rgb(10,55,83)" stroke="#1a1a2e" stroke-width="1"/>
<text x="125" y="490" text-anchor="middle" fill="#bbbbbb" font-size="13" font-weight="normal">0.10</text>
<rect x="170" y="440" width="90" height="90" fill="rgb(10,175,212)" stroke="#1a1a2e" stroke-width="1"/>
<text x="215" y="490" text-anchor="middle" fill="white" font-size="13" font-weight="bold">0.40</text>
<rect x="260" y="440" width="90" height="90" fill="rgb(10,155,190)" stroke="#1a1a2e" stroke-width="1"/>
<text x="305" y="490" text-anchor="middle" fill="white" font-size="13" font-weight="bold">0.35</text>
<rect x="350" y="440" width="90" height="90" fill="rgb(10,159,194)" stroke="#1a1a2e" stroke-width="1"/>
<text x="395" y="490" text-anchor="middle" fill="white" font-size="13" font-weight="bold">0.36</text>
<rect x="440" y="440" width="90" height="90" fill="rgb(10,135,169)" stroke="#1a1a2e" stroke-width="1"/>
<text x="485" y="490" text-anchor="middle" fill="#bbbbbb" font-size="13" font-weight="normal">0.30</text>
<rect x="440" y="170" width="90" height="90" fill="none" stroke="#00d9ff" stroke-width="3" rx="3"/>
<rect x="170" y="440" width="90" height="90" fill="none" stroke="#00d9ff" stroke-width="3" rx="3"/>
<text x="538" y="210" fill="#00d9ff" font-size="10">bank ↔ loan</text>
<text x="538" y="225" fill="#00d9ff" font-size="10">= 0.40 both</text>
<text x="538" y="238" fill="#00d9ff" font-size="10">directions</text>
<text x="305" y="50" text-anchor="middle" fill="#888888" font-size="11">Attends TO →</text>
<text x="12" y="305" text-anchor="middle" fill="#888888" font-size="11" transform="rotate(-90, 12, 305)">← FROM word</text>
<rect x="580" y="110" width="12" height="1" fill="rgb(10,215,255)"/>
<rect x="580" y="111" width="12" height="1" fill="rgb(10,214,254)"/>
<rect x="580" y="112" width="12" height="1" fill="rgb(10,213,253)"/>
<rect x="580" y="113" width="12" height="1" fill="rgb(10,213,253)"/>
<rect x="580" y="114" width="12" height="1" fill="rgb(10,212,252)"/>
<rect x="580" y="115" width="12" height="1" fill="rgb(10,212,252)"/>
<rect x="580" y="116" width="12" height="1" fill="rgb(10,211,251)"/>
<rect x="580" y="117" width="12" height="1" fill="rgb(10,211,251)"/>
<rect x="580" y="118" width="12" height="1" fill="rgb(10,210,250)"/>
<rect x="580" y="119" width="12" height="1" fill="rgb(10,210,250)"/>
<rect x="580" y="120" width="12" height="1" fill="rgb(10,209,249)"/>
<rect x="580" y="121" width="12" height="1" fill="rgb(10,209,248)"/>
<rect x="580" y="122" width="12" height="1" fill="rgb(10,208,248)"/>
<rect x="580" y="123" width="12" height="1" fill="rgb(10,208,247)"/>
<rect x="580" y="124" width="12" height="1" fill="rgb(10,207,247)"/>
<rect x="580" y="125" width="12" height="1" fill="rgb(10,207,246)"/>
<rect x="580" y="126" width="12" height="1" fill="rgb(10,206,246)"/>
<rect x="580" y="127" width="12" height="1" fill="rgb(10,206,245)"/>
<rect x="580" y="128" width="12" height="1" fill="rgb(10,205,245)"/>
<rect x="580" y="129" width="12" height="1" fill="rgb(10,205,244)"/>
<rect x="580" y="130" width="12" height="1" fill="rgb(10,204,243)"/>
<rect x="580" y="131" width="12" height="1" fill="rgb(10,204,243)"/>
<rect x="580" y="132" width="12" height="1" fill="rgb(10,203,242)"/>
<rect x="580" y="133" width="12" height="1" fill="rgb(10,203,242)"/>
<rect x="580" y="134" width="12" height="1" fill="rgb(10,202,241)"/>
<rect x="580" y="135" width="12" height="1" fill="rgb(10,202,241)"/>
<rect x="580" y="136" width="12" height="1" fill="rgb(10,201,240)"/>
<rect x="580" y="137" width="12" height="1" fill="rgb(10,201,240)"/>
<rect x="580" y="138" width="12" height="1" fill="rgb(10,200,239)"/>
<rect x="580" y="139" width="12" height="1" fill="rgb(10,200,239)"/>
<rect x="580" y="140" width="12" height="1" fill="rgb(10,199,238)"/>
<rect x="580" y="141" width="12" height="1" fill="rgb(10,199,237)"/>
<rect x="580" y="142" width="12" height="1" fill="rgb(10,198,237)"/>
<rect x="580" y="143" width="12" height="1" fill="rgb(10,198,236)"/>
<rect x="580" y="144" width="12" height="1" fill="rgb(10,197,236)"/>
<rect x="580" y="145" width="12" height="1" fill="rgb(10,197,235)"/>
<rect x="580" y="146" width="12" height="1" fill="rgb(10,196,235)"/>
<rect x="580" y="147" width="12" height="1" fill="rgb(10,196,234)"/>
<rect x="580" y="148" width="12" height="1" fill="rgb(10,195,234)"/>
<rect x="580" y="149" width="12" height="1" fill="rgb(10,195,233)"/>
<rect x="580" y="150" width="12" height="1" fill="rgb(10,194,232)"/>
<rect x="580" y="151" width="12" height="1" fill="rgb(10,193,232)"/>
<rect x="580" y="152" width="12" height="1" fill="rgb(10,193,231)"/>
<rect x="580" y="153" width="12" height="1" fill="rgb(10,192,231)"/>
<rect x="580" y="154" width="12" height="1" fill="rgb(10,192,230)"/>
<rect x="580" y="155" width="12" height="1" fill="rgb(10,191,230)"/>
<rect x="580" y="156" width="12" height="1" fill="rgb(10,191,229)"/>
<rect x="580" y="157" width="12" height="1" fill="rgb(10,190,229)"/>
<rect x="580" y="158" width="12" height="1" fill="rgb(10,190,228)"/>
<rect x="580" y="159" width="12" height="1" fill="rgb(10,189,227)"/>
<rect x="580" y="160" width="12" height="1" fill="rgb(10,189,227)"/>
<rect x="580" y="161" width="12" height="1" fill="rgb(10,188,226)"/>
<rect x="580" y="162" width="12" height="1" fill="rgb(10,188,226)"/>
<rect x="580" y="163" width="12" height="1" fill="rgb(10,187,225)"/>
<rect x="580" y="164" width="12" height="1" fill="rgb(10,187,225)"/>
<rect x="580" y="165" width="12" height="1" fill="rgb(10,186,224)"/>
<rect x="580" y="166" width="12" height="1" fill="rgb(10,186,224)"/>
<rect x="580" y="167" width="12" height="1" fill="rgb(10,185,223)"/>
<rect x="580" y="168" width="12" height="1" fill="rgb(10,185,223)"/>
<rect x="580" y="169" width="12" height="1" fill="rgb(10,184,222)"/>
<rect x="580" y="170" width="12" height="1" fill="rgb(10,184,221)"/>
<rect x="580" y="171" width="12" height="1" fill="rgb(10,183,221)"/>
<rect x="580" y="172" width="12" height="1" fill="rgb(10,183,220)"/>
<rect x="580" y="173" width="12" height="1" fill="rgb(10,182,220)"/>
<rect x="580" y="174" width="12" height="1" fill="rgb(10,182,219)"/>
<rect x="580" y="175" width="12" height="1" fill="rgb(10,181,219)"/>
<rect x="580" y="176" width="12" height="1" fill="rgb(10,181,218)"/>
<rect x="580" y="177" width="12" height="1" fill="rgb(10,180,218)"/>
<rect x="580" y="178" width="12" height="1" fill="rgb(10,180,217)"/>
<rect x="580" y="179" width="12" height="1" fill="rgb(10,179,216)"/>
<rect x="580" y="180" width="12" height="1" fill="rgb(10,179,216)"/>
<rect x="580" y="181" width="12" height="1" fill="rgb(10,178,215)"/>
<rect x="580" y="182" width="12" height="1" fill="rgb(10,178,215)"/>
<rect x="580" y="183" width="12" height="1" fill="rgb(10,177,214)"/>
<rect x="580" y="184" width="12" height="1" fill="rgb(10,177,214)"/>
<rect x="580" y="185" width="12" height="1" fill="rgb(10,176,213)"/>
<rect x="580" y="186" width="12" height="1" fill="rgb(10,176,213)"/>
<rect x="580" y="187" width="12" height="1" fill="rgb(10,175,212)"/>
<rect x="580" y="188" width="12" height="1" fill="rgb(10,175,212)"/>
<rect x="580" y="189" width="12" height="1" fill="rgb(10,174,211)"/>
<rect x="580" y="190" width="12" height="1" fill="rgb(10,173,210)"/>
<rect x="580" y="191" width="12" height="1" fill="rgb(10,173,210)"/>
<rect x="580" y="192" width="12" height="1" fill="rgb(10,172,209)"/>
<rect x="580" y="193" width="12" height="1" fill="rgb(10,172,209)"/>
<rect x="580" y="194" width="12" height="1" fill="rgb(10,171,208)"/>
<rect x="580" y="195" width="12" height="1" fill="rgb(10,171,208)"/>
<rect x="580" y="196" width="12" height="1" fill="rgb(10,170,207)"/>
<rect x="580" y="197" width="12" height="1" fill="rgb(10,170,207)"/>
<rect x="580" y="198" width="12" height="1" fill="rgb(10,169,206)"/>
<rect x="580" y="199" width="12" height="1" fill="rgb(10,169,205)"/>
<rect x="580" y="200" width="12" height="1" fill="rgb(10,168,205)"/>
<rect x="580" y="201" width="12" height="1" fill="rgb(10,168,204)"/>
<rect x="580" y="202" width="12" height="1" fill="rgb(10,167,204)"/>
<rect x="580" y="203" width="12" height="1" fill="rgb(10,167,203)"/>
<rect x="580" y="204" width="12" height="1" fill="rgb(10,166,203)"/>
<rect x="580" y="205" width="12" height="1" fill="rgb(10,166,202)"/>
<rect x="580" y="206" width="12" height="1" fill="rgb(10,165,202)"/>
<rect x="580" y="207" width="12" height="1" fill="rgb(10,165,201)"/>
<rect x="580" y="208" width="12" height="1" fill="rgb(10,164,200)"/>
<rect x="580" y="209" width="12" height="1" fill="rgb(10,164,200)"/>
<rect x="580" y="210" width="12" height="1" fill="rgb(10,163,199)"/>
<rect x="580" y="211" width="12" height="1" fill="rgb(10,163,199)"/>
<rect x="580" y="212" width="12" height="1" fill="rgb(10,162,198)"/>
<rect x="580" y="213" width="12" height="1" fill="rgb(10,162,198)"/>
<rect x="580" y="214" width="12" height="1" fill="rgb(10,161,197)"/>
<rect x="580" y="215" width="12" height="1" fill="rgb(10,161,197)"/>
<rect x="580" y="216" width="12" height="1" fill="rgb(10,160,196)"/>
<rect x="580" y="217" width="12" height="1" fill="rgb(10,160,196)"/>
<rect x="580" y="218" width="12" height="1" fill="rgb(10,159,195)"/>
<rect x="580" y="219" width="12" height="1" fill="rgb(10,159,194)"/>
<rect x="580" y="220" width="12" height="1" fill="rgb(10,158,194)"/>
<rect x="580" y="221" width="12" height="1" fill="rgb(10,158,193)"/>
<rect x="580" y="222" width="12" height="1" fill="rgb(10,157,193)"/>
<rect x="580" y="223" width="12" height="1" fill="rgb(10,157,192)"/>
<rect x="580" y="224" width="12" height="1" fill="rgb(10,156,192)"/>
<rect x="580" y="225" width="12" height="1" fill="rgb(10,156,191)"/>
<rect x="580" y="226" width="12" height="1" fill="rgb(10,155,191)"/>
<rect x="580" y="227" width="12" height="1" fill="rgb(10,155,190)"/>
<rect x="580" y="228" width="12" height="1" fill="rgb(10,154,189)"/>
<rect x="580" y="229" width="12" height="1" fill="rgb(10,153,189)"/>
<rect x="580" y="230" width="12" height="1" fill="rgb(10,153,188)"/>
<rect x="580" y="231" width="12" height="1" fill="rgb(10,152,188)"/>
<rect x="580" y="232" width="12" height="1" fill="rgb(10,152,187)"/>
<rect x="580" y="233" width="12" height="1" fill="rgb(10,151,187)"/>
<rect x="580" y="234" width="12" height="1" fill="rgb(10,151,186)"/>
<rect x="580" y="235" width="12" height="1" fill="rgb(10,150,186)"/>
<rect x="580" y="236" width="12" height="1" fill="rgb(10,150,185)"/>
<rect x="580" y="237" width="12" height="1" fill="rgb(10,149,184)"/>
<rect x="580" y="238" width="12" height="1" fill="rgb(10,149,184)"/>
<rect x="580" y="239" width="12" height="1" fill="rgb(10,148,183)"/>
<rect x="580" y="240" width="12" height="1" fill="rgb(10,148,183)"/>
<rect x="580" y="241" width="12" height="1" fill="rgb(10,147,182)"/>
<rect x="580" y="242" width="12" height="1" fill="rgb(10,147,182)"/>
<rect x="580" y="243" width="12" height="1" fill="rgb(10,146,181)"/>
<rect x="580" y="244" width="12" height="1" fill="rgb(10,146,181)"/>
<rect x="580" y="245" width="12" height="1" fill="rgb(10,145,180)"/>
<rect x="580" y="246" width="12" height="1" fill="rgb(10,145,180)"/>
<rect x="580" y="247" width="12" height="1" fill="rgb(10,144,179)"/>
<rect x="580" y="248" width="12" height="1" fill="rgb(10,144,178)"/>
<rect x="580" y="249" width="12" height="1" fill="rgb(10,143,178)"/>
<rect x="580" y="250" width="12" height="1" fill="rgb(10,143,177)"/>
<rect x="580" y="251" width="12" height="1" fill="rgb(10,142,177)"/>
<rect x="580" y="252" width="12" height="1" fill="rgb(10,142,176)"/>
<rect x="580" y="253" width="12" height="1" fill="rgb(10,141,176)"/>
<rect x="580" y="254" width="12" height="1" fill="rgb(10,141,175)"/>
<rect x="580" y="255" width="12" height="1" fill="rgb(10,140,175)"/>
<rect x="580" y="256" width="12" height="1" fill="rgb(10,140,174)"/>
<rect x="580" y="257" width="12" height="1" fill="rgb(10,139,173)"/>
<rect x="580" y="258" width="12" height="1" fill="rgb(10,139,173)"/>
<rect x="580" y="259" width="12" height="1" fill="rgb(10,138,172)"/>
<rect x="580" y="260" width="12" height="1" fill="rgb(10,138,172)"/>
<rect x="580" y="261" width="12" height="1" fill="rgb(10,137,171)"/>
<rect x="580" y="262" width="12" height="1" fill="rgb(10,137,171)"/>
<rect x="580" y="263" width="12" height="1" fill="rgb(10,136,170)"/>
<rect x="580" y="264" width="12" height="1" fill="rgb(10,136,170)"/>
<rect x="580" y="265" width="12" height="1" fill="rgb(10,135,169)"/>
<rect x="580" y="266" width="12" height="1" fill="rgb(10,135,169)"/>
<rect x="580" y="267" width="12" height="1" fill="rgb(10,134,168)"/>
<rect x="580" y="268" width="12" height="1" fill="rgb(10,133,167)"/>
<rect x="580" y="269" width="12" height="1" fill="rgb(10,133,167)"/>
<rect x="580" y="270" width="12" height="1" fill="rgb(10,132,166)"/>
<rect x="580" y="271" width="12" height="1" fill="rgb(10,132,166)"/>
<rect x="580" y="272" width="12" height="1" fill="rgb(10,131,165)"/>
<rect x="580" y="273" width="12" height="1" fill="rgb(10,131,165)"/>
<rect x="580" y="274" width="12" height="1" fill="rgb(10,130,164)"/>
<rect x="580" y="275" width="12" height="1" fill="rgb(10,130,164)"/>
<rect x="580" y="276" width="12" height="1" fill="rgb(10,129,163)"/>
<rect x="580" y="277" width="12" height="1" fill="rgb(10,129,162)"/>
<rect x="580" y="278" width="12" height="1" fill="rgb(10,128,162)"/>
<rect x="580" y="279" width="12" height="1" fill="rgb(10,128,161)"/>
<rect x="580" y="280" width="12" height="1" fill="rgb(10,127,161)"/>
<rect x="580" y="281" width="12" height="1" fill="rgb(10,127,160)"/>
<rect x="580" y="282" width="12" height="1" fill="rgb(10,126,160)"/>
<rect x="580" y="283" width="12" height="1" fill="rgb(10,126,159)"/>
<rect x="580" y="284" width="12" height="1" fill="rgb(10,125,159)"/>
<rect x="580" y="285" width="12" height="1" fill="rgb(10,125,158)"/>
<rect x="580" y="286" width="12" height="1" fill="rgb(10,124,157)"/>
<rect x="580" y="287" width="12" height="1" fill="rgb(10,124,157)"/>
<rect x="580" y="288" width="12" height="1" fill="rgb(10,123,156)"/>
<rect x="580" y="289" width="12" height="1" fill="rgb(10,123,156)"/>
<rect x="580" y="290" width="12" height="1" fill="rgb(10,122,155)"/>
<rect x="580" y="291" width="12" height="1" fill="rgb(10,122,155)"/>
<rect x="580" y="292" width="12" height="1" fill="rgb(10,121,154)"/>
<rect x="580" y="293" width="12" height="1" fill="rgb(10,121,154)"/>
<rect x="580" y="294" width="12" height="1" fill="rgb(10,120,153)"/>
<rect x="580" y="295" width="12" height="1" fill="rgb(10,120,153)"/>
<rect x="580" y="296" width="12" height="1" fill="rgb(10,119,152)"/>
<rect x="580" y="297" width="12" height="1" fill="rgb(10,119,151)"/>
<rect x="580" y="298" width="12" height="1" fill="rgb(10,118,151)"/>
<rect x="580" y="299" width="12" height="1" fill="rgb(10,118,150)"/>
<rect x="580" y="300" width="12" height="1" fill="rgb(10,117,150)"/>
<rect x="580" y="301" width="12" height="1" fill="rgb(10,117,149)"/>
<rect x="580" y="302" width="12" height="1" fill="rgb(10,116,149)"/>
<rect x="580" y="303" width="12" height="1" fill="rgb(10,116,148)"/>
<rect x="580" y="304" width="12" height="1" fill="rgb(10,115,148)"/>
<rect x="580" y="305" width="12" height="1" fill="rgb(10,115,147)"/>
<rect x="580" y="306" width="12" height="1" fill="rgb(10,114,146)"/>
<rect x="580" y="307" width="12" height="1" fill="rgb(10,113,146)"/>
<rect x="580" y="308" width="12" height="1" fill="rgb(10,113,145)"/>
<rect x="580" y="309" width="12" height="1" fill="rgb(10,112,145)"/>
<rect x="580" y="310" width="12" height="1" fill="rgb(10,112,144)"/>
<rect x="580" y="311" width="12" height="1" fill="rgb(10,111,144)"/>
<rect x="580" y="312" width="12" height="1" fill="rgb(10,111,143)"/>
<rect x="580" y="313" width="12" height="1" fill="rgb(10,110,143)"/>
<rect x="580" y="314" width="12" height="1" fill="rgb(10,110,142)"/>
<rect x="580" y="315" width="12" height="1" fill="rgb(10,109,141)"/>
<rect x="580" y="316" width="12" height="1" fill="rgb(10,109,141)"/>
<rect x="580" y="317" width="12" height="1" fill="rgb(10,108,140)"/>
<rect x="580" y="318" width="12" height="1" fill="rgb(10,108,140)"/>
<rect x="580" y="319" width="12" height="1" fill="rgb(10,107,139)"/>
<rect x="580" y="320" width="12" height="1" fill="rgb(10,107,139)"/>
<rect x="580" y="321" width="12" height="1" fill="rgb(10,106,138)"/>
<rect x="580" y="322" width="12" height="1" fill="rgb(10,106,138)"/>
<rect x="580" y="323" width="12" height="1" fill="rgb(10,105,137)"/>
<rect x="580" y="324" width="12" height="1" fill="rgb(10,105,137)"/>
<rect x="580" y="325" width="12" height="1" fill="rgb(10,104,136)"/>
<rect x="580" y="326" width="12" height="1" fill="rgb(10,104,135)"/>
<rect x="580" y="327" width="12" height="1" fill="rgb(10,103,135)"/>
<rect x="580" y="328" width="12" height="1" fill="rgb(10,103,134)"/>
<rect x="580" y="329" width="12" height="1" fill="rgb(10,102,134)"/>
<rect x="580" y="330" width="12" height="1" fill="rgb(10,102,133)"/>
<rect x="580" y="331" width="12" height="1" fill="rgb(10,101,133)"/>
<rect x="580" y="332" width="12" height="1" fill="rgb(10,101,132)"/>
<rect x="580" y="333" width="12" height="1" fill="rgb(10,100,132)"/>
<rect x="580" y="334" width="12" height="1" fill="rgb(10,100,131)"/>
<rect x="580" y="335" width="12" height="1" fill="rgb(10,99,130)"/>
<rect x="580" y="336" width="12" height="1" fill="rgb(10,99,130)"/>
<rect x="580" y="337" width="12" height="1" fill="rgb(10,98,129)"/>
<rect x="580" y="338" width="12" height="1" fill="rgb(10,98,129)"/>
<rect x="580" y="339" width="12" height="1" fill="rgb(10,97,128)"/>
<rect x="580" y="340" width="12" height="1" fill="rgb(10,97,128)"/>
<rect x="580" y="341" width="12" height="1" fill="rgb(10,96,127)"/>
<rect x="580" y="342" width="12" height="1" fill="rgb(10,96,127)"/>
<rect x="580" y="343" width="12" height="1" fill="rgb(10,95,126)"/>
<rect x="580" y="344" width="12" height="1" fill="rgb(10,95,126)"/>
<rect x="580" y="345" width="12" height="1" fill="rgb(10,94,125)"/>
<rect x="580" y="346" width="12" height="1" fill="rgb(10,93,124)"/>
<rect x="580" y="347" width="12" height="1" fill="rgb(10,93,124)"/>
<rect x="580" y="348" width="12" height="1" fill="rgb(10,92,123)"/>
<rect x="580" y="349" width="12" height="1" fill="rgb(10,92,123)"/>
<rect x="580" y="350" width="12" height="1" fill="rgb(10,91,122)"/>
<rect x="580" y="351" width="12" height="1" fill="rgb(10,91,122)"/>
<rect x="580" y="352" width="12" height="1" fill="rgb(10,90,121)"/>
<rect x="580" y="353" width="12" height="1" fill="rgb(10,90,121)"/>
<rect x="580" y="354" width="12" height="1" fill="rgb(10,89,120)"/>
<rect x="580" y="355" width="12" height="1" fill="rgb(10,89,119)"/>
<rect x="580" y="356" width="12" height="1" fill="rgb(10,88,119)"/>
<rect x="580" y="357" width="12" height="1" fill="rgb(10,88,118)"/>
<rect x="580" y="358" width="12" height="1" fill="rgb(10,87,118)"/>
<rect x="580" y="359" width="12" height="1" fill="rgb(10,87,117)"/>
<rect x="580" y="360" width="12" height="1" fill="rgb(10,86,117)"/>
<rect x="580" y="361" width="12" height="1" fill="rgb(10,86,116)"/>
<rect x="580" y="362" width="12" height="1" fill="rgb(10,85,116)"/>
<rect x="580" y="363" width="12" height="1" fill="rgb(10,85,115)"/>
<rect x="580" y="364" width="12" height="1" fill="rgb(10,84,114)"/>
<rect x="580" y="365" width="12" height="1" fill="rgb(10,84,114)"/>
<rect x="580" y="366" width="12" height="1" fill="rgb(10,83,113)"/>
<rect x="580" y="367" width="12" height="1" fill="rgb(10,83,113)"/>
<rect x="580" y="368" width="12" height="1" fill="rgb(10,82,112)"/>
<rect x="580" y="369" width="12" height="1" fill="rgb(10,82,112)"/>
<rect x="580" y="370" width="12" height="1" fill="rgb(10,81,111)"/>
<rect x="580" y="371" width="12" height="1" fill="rgb(10,81,111)"/>
<rect x="580" y="372" width="12" height="1" fill="rgb(10,80,110)"/>
<rect x="580" y="373" width="12" height="1" fill="rgb(10,80,110)"/>
<rect x="580" y="374" width="12" height="1" fill="rgb(10,79,109)"/>
<rect x="580" y="375" width="12" height="1" fill="rgb(10,79,108)"/>
<rect x="580" y="376" width="12" height="1" fill="rgb(10,78,108)"/>
<rect x="580" y="377" width="12" height="1" fill="rgb(10,78,107)"/>
<rect x="580" y="378" width="12" height="1" fill="rgb(10,77,107)"/>
<rect x="580" y="379" width="12" height="1" fill="rgb(10,77,106)"/>
<rect x="580" y="380" width="12" height="1" fill="rgb(10,76,106)"/>
<rect x="580" y="381" width="12" height="1" fill="rgb(10,76,105)"/>
<rect x="580" y="382" width="12" height="1" fill="rgb(10,75,105)"/>
<rect x="580" y="383" width="12" height="1" fill="rgb(10,75,104)"/>
<rect x="580" y="384" width="12" height="1" fill="rgb(10,74,103)"/>
<rect x="580" y="385" width="12" height="1" fill="rgb(10,73,103)"/>
<rect x="580" y="386" width="12" height="1" fill="rgb(10,73,102)"/>
<rect x="580" y="387" width="12" height="1" fill="rgb(10,72,102)"/>
<rect x="580" y="388" width="12" height="1" fill="rgb(10,72,101)"/>
<rect x="580" y="389" width="12" height="1" fill="rgb(10,71,101)"/>
<rect x="580" y="390" width="12" height="1" fill="rgb(10,71,100)"/>
<rect x="580" y="391" width="12" height="1" fill="rgb(10,70,100)"/>
<rect x="580" y="392" width="12" height="1" fill="rgb(10,70,99)"/>
<rect x="580" y="393" width="12" height="1" fill="rgb(10,69,98)"/>
<rect x="580" y="394" width="12" height="1" fill="rgb(10,69,98)"/>
<rect x="580" y="395" width="12" height="1" fill="rgb(10,68,97)"/>
<rect x="580" y="396" width="12" height="1" fill="rgb(10,68,97)"/>
<rect x="580" y="397" width="12" height="1" fill="rgb(10,67,96)"/>
<rect x="580" y="398" width="12" height="1" fill="rgb(10,67,96)"/>
<rect x="580" y="399" width="12" height="1" fill="rgb(10,66,95)"/>
<rect x="580" y="400" width="12" height="1" fill="rgb(10,66,95)"/>
<rect x="580" y="401" width="12" height="1" fill="rgb(10,65,94)"/>
<rect x="580" y="402" width="12" height="1" fill="rgb(10,65,94)"/>
<rect x="580" y="403" width="12" height="1" fill="rgb(10,64,93)"/>
<rect x="580" y="404" width="12" height="1" fill="rgb(10,64,92)"/>
<rect x="580" y="405" width="12" height="1" fill="rgb(10,63,92)"/>
<rect x="580" y="406" width="12" height="1" fill="rgb(10,63,91)"/>
<rect x="580" y="407" width="12" height="1" fill="rgb(10,62,91)"/>
<rect x="580" y="408" width="12" height="1" fill="rgb(10,62,90)"/>
<rect x="580" y="409" width="12" height="1" fill="rgb(10,61,90)"/>
<rect x="580" y="410" width="12" height="1" fill="rgb(10,61,89)"/>
<rect x="580" y="411" width="12" height="1" fill="rgb(10,60,89)"/>
<rect x="580" y="412" width="12" height="1" fill="rgb(10,60,88)"/>
<rect x="580" y="413" width="12" height="1" fill="rgb(10,59,87)"/>
<rect x="580" y="414" width="12" height="1" fill="rgb(10,59,87)"/>
<rect x="580" y="415" width="12" height="1" fill="rgb(10,58,86)"/>
<rect x="580" y="416" width="12" height="1" fill="rgb(10,58,86)"/>
<rect x="580" y="417" width="12" height="1" fill="rgb(10,57,85)"/>
<rect x="580" y="418" width="12" height="1" fill="rgb(10,57,85)"/>
<rect x="580" y="419" width="12" height="1" fill="rgb(10,56,84)"/>
<rect x="580" y="420" width="12" height="1" fill="rgb(10,56,84)"/>
<rect x="580" y="421" width="12" height="1" fill="rgb(10,55,83)"/>
<rect x="580" y="422" width="12" height="1" fill="rgb(10,54,83)"/>
<rect x="580" y="423" width="12" height="1" fill="rgb(10,54,82)"/>
<rect x="580" y="424" width="12" height="1" fill="rgb(10,53,81)"/>
<rect x="580" y="425" width="12" height="1" fill="rgb(10,53,81)"/>
<rect x="580" y="426" width="12" height="1" fill="rgb(10,52,80)"/>
<rect x="580" y="427" width="12" height="1" fill="rgb(10,52,80)"/>
<rect x="580" y="428" width="12" height="1" fill="rgb(10,51,79)"/>
<rect x="580" y="429" width="12" height="1" fill="rgb(10,51,79)"/>
<rect x="580" y="430" width="12" height="1" fill="rgb(10,50,78)"/>
<rect x="580" y="431" width="12" height="1" fill="rgb(10,50,78)"/>
<rect x="580" y="432" width="12" height="1" fill="rgb(10,49,77)"/>
<rect x="580" y="433" width="12" height="1" fill="rgb(10,49,76)"/>
<rect x="580" y="434" width="12" height="1" fill="rgb(10,48,76)"/>
<rect x="580" y="435" width="12" height="1" fill="rgb(10,48,75)"/>
<rect x="580" y="436" width="12" height="1" fill="rgb(10,47,75)"/>
<rect x="580" y="437" width="12" height="1" fill="rgb(10,47,74)"/>
<rect x="580" y="438" width="12" height="1" fill="rgb(10,46,74)"/>
<rect x="580" y="439" width="12" height="1" fill="rgb(10,46,73)"/>
<rect x="580" y="440" width="12" height="1" fill="rgb(10,45,73)"/>
<rect x="580" y="441" width="12" height="1" fill="rgb(10,45,72)"/>
<rect x="580" y="442" width="12" height="1" fill="rgb(10,44,71)"/>
<rect x="580" y="443" width="12" height="1" fill="rgb(10,44,71)"/>
<rect x="580" y="444" width="12" height="1" fill="rgb(10,43,70)"/>
<rect x="580" y="445" width="12" height="1" fill="rgb(10,43,70)"/>
<rect x="580" y="446" width="12" height="1" fill="rgb(10,42,69)"/>
<rect x="580" y="447" width="12" height="1" fill="rgb(10,42,69)"/>
<rect x="580" y="448" width="12" height="1" fill="rgb(10,41,68)"/>
<rect x="580" y="449" width="12" height="1" fill="rgb(10,41,68)"/>
<rect x="580" y="450" width="12" height="1" fill="rgb(10,40,67)"/>
<rect x="580" y="451" width="12" height="1" fill="rgb(10,40,67)"/>
<rect x="580" y="452" width="12" height="1" fill="rgb(10,39,66)"/>
<rect x="580" y="453" width="12" height="1" fill="rgb(10,39,65)"/>
<rect x="580" y="454" width="12" height="1" fill="rgb(10,38,65)"/>
<rect x="580" y="455" width="12" height="1" fill="rgb(10,38,64)"/>
<rect x="580" y="456" width="12" height="1" fill="rgb(10,37,64)"/>
<rect x="580" y="457" width="12" height="1" fill="rgb(10,37,63)"/>
<rect x="580" y="458" width="12" height="1" fill="rgb(10,36,63)"/>
<rect x="580" y="459" width="12" height="1" fill="rgb(10,36,62)"/>
<rect x="580" y="460" width="12" height="1" fill="rgb(10,35,62)"/>
<rect x="580" y="461" width="12" height="1" fill="rgb(10,35,61)"/>
<rect x="580" y="462" width="12" height="1" fill="rgb(10,34,60)"/>
<rect x="580" y="463" width="12" height="1" fill="rgb(10,33,60)"/>
<rect x="580" y="464" width="12" height="1" fill="rgb(10,33,59)"/>
<rect x="580" y="465" width="12" height="1" fill="rgb(10,32,59)"/>
<rect x="580" y="466" width="12" height="1" fill="rgb(10,32,58)"/>
<rect x="580" y="467" width="12" height="1" fill="rgb(10,31,58)"/>
<rect x="580" y="468" width="12" height="1" fill="rgb(10,31,57)"/>
<rect x="580" y="469" width="12" height="1" fill="rgb(10,30,57)"/>
<rect x="580" y="470" width="12" height="1" fill="rgb(10,30,56)"/>
<rect x="580" y="471" width="12" height="1" fill="rgb(10,29,55)"/>
<rect x="580" y="472" width="12" height="1" fill="rgb(10,29,55)"/>
<rect x="580" y="473" width="12" height="1" fill="rgb(10,28,54)"/>
<rect x="580" y="474" width="12" height="1" fill="rgb(10,28,54)"/>
<rect x="580" y="475" width="12" height="1" fill="rgb(10,27,53)"/>
<rect x="580" y="476" width="12" height="1" fill="rgb(10,27,53)"/>
<rect x="580" y="477" width="12" height="1" fill="rgb(10,26,52)"/>
<rect x="580" y="478" width="12" height="1" fill="rgb(10,26,52)"/>
<rect x="580" y="479" width="12" height="1" fill="rgb(10,25,51)"/>
<rect x="580" y="480" width="12" height="1" fill="rgb(10,25,51)"/>
<rect x="580" y="481" width="12" height="1" fill="rgb(10,24,50)"/>
<rect x="580" y="482" width="12" height="1" fill="rgb(10,24,49)"/>
<rect x="580" y="483" width="12" height="1" fill="rgb(10,23,49)"/>
<rect x="580" y="484" width="12" height="1" fill="rgb(10,23,48)"/>
<rect x="580" y="485" width="12" height="1" fill="rgb(10,22,48)"/>
<rect x="580" y="486" width="12" height="1" fill="rgb(10,22,47)"/>
<rect x="580" y="487" width="12" height="1" fill="rgb(10,21,47)"/>
<rect x="580" y="488" width="12" height="1" fill="rgb(10,21,46)"/>
<rect x="580" y="489" width="12" height="1" fill="rgb(10,20,46)"/>
<rect x="580" y="490" width="12" height="1" fill="rgb(10,20,45)"/>
<rect x="580" y="491" width="12" height="1" fill="rgb(10,19,44)"/>
<rect x="580" y="492" width="12" height="1" fill="rgb(10,19,44)"/>
<rect x="580" y="493" width="12" height="1" fill="rgb(10,18,43)"/>
<rect x="580" y="494" width="12" height="1" fill="rgb(10,18,43)"/>
<rect x="580" y="495" width="12" height="1" fill="rgb(10,17,42)"/>
<rect x="580" y="496" width="12" height="1" fill="rgb(10,17,42)"/>
<rect x="580" y="497" width="12" height="1" fill="rgb(10,16,41)"/>
<rect x="580" y="498" width="12" height="1" fill="rgb(10,16,41)"/>
<rect x="580" y="499" width="12" height="1" fill="rgb(10,15,40)"/>
<text x="598" y="115" fill="#888888" font-size="9">0.50</text>
<text x="598" y="500" fill="#888888" font-size="9">0.00</text>
</svg>